HIERARCHY
ROOT hip
{
	OFFSET 0.000000 0.000000 0.000000 
	CHANNELS 6 Xposition Yposition Zposition Xrotation Zrotation Yrotation
	JOINT abdomen
	{
		OFFSET 0.000000 3.402643 0.000000 
		CHANNELS 3 Xrotation Zrotation Yrotation
		JOINT chest
		{
			OFFSET 0.000000 8.438565 -0.680529 
			CHANNELS 3 Xrotation Zrotation Yrotation
			JOINT neck
			{
				OFFSET 0.000000 10.207942 -0.272212 
				CHANNELS 3 Xrotation Zrotation Yrotation
				JOINT head
				{
					OFFSET 0.000000 3.130431 0.000000 
					CHANNELS 3 Xrotation Zrotation Yrotation
					End Site
					{
						OFFSET 0.000000 3.130435 0.000000 
					}
				}
			}
			JOINT lCollar
			{
				OFFSET 3.470700 6.669187 -0.816635 
				CHANNELS 3 Yrotation Zrotation Xrotation
				JOINT lShldr
				{
					OFFSET 3.198488 0.000000 0.000000 
					CHANNELS 3 Zrotation Yrotation Xrotation
					JOINT lForeArm
					{
						OFFSET 10.139888 0.000000 0.000000 
						CHANNELS 3 Yrotation Zrotation Xrotation
						JOINT lHand
						{
							OFFSET 8.370511 0.000000 0.000000 
							CHANNELS 3 Zrotation Yrotation Xrotation
							End Site
							{
								OFFSET 4.083176 0.000000 0.000000 
							}
						}
					}
				}
			}
			JOINT rCollar
			{
				OFFSET -3.470700 6.669187 -0.816635 
				CHANNELS 3 Yrotation Zrotation Xrotation
				JOINT rShldr
				{
					OFFSET -3.198488 0.000000 0.000000 
					CHANNELS 3 Zrotation Yrotation Xrotation
					JOINT rForeArm
					{
						OFFSET -10.139888 0.000000 0.000000 
						CHANNELS 3 Yrotation Zrotation Xrotation
						JOINT rHand
						{
							OFFSET -8.370511 0.000000 0.000000 
							CHANNELS 3 Zrotation Yrotation Xrotation
							End Site
							{
								OFFSET -4.083176 0.000000 0.000000 
							}
						}
					}
				}
			}
		}
	}
	JOINT lThigh
	{
		OFFSET 5.308129 -1.633274 1.361059 
		CHANNELS 3 Xrotation Zrotation Yrotation
		JOINT lShin
		{
			OFFSET -2.041588 -20.007561 0.000000 
			CHANNELS 3 Xrotation Zrotation Yrotation
			JOINT lFoot
			{
				OFFSET 0.000000 -19.190928 -1.224953 
				CHANNELS 3 Xrotation Yrotation Zrotation
				End Site
				{
					OFFSET 0.000000 -2.449906 4.627600 
				}
			}
		}
	}
	JOINT rThigh
	{
		OFFSET -5.308129 -1.633274 1.361059 
		CHANNELS 3 Xrotation Zrotation Yrotation
		JOINT rShin
		{
			OFFSET 2.041588 -20.007561 0.000000 
			CHANNELS 3 Xrotation Zrotation Yrotation
			JOINT rFoot
			{
				OFFSET 0.000000 -19.190928 -1.224953 
				CHANNELS 3 Xrotation Yrotation Zrotation
				End Site
				{
					OFFSET 0.000000 -2.449906 4.627600 
				}
			}
		}
	}
}
MOTION
Frames: 13
Frame Time: 0.033333
-3.461094 45.166306 -60.038532 5.273438 -8.261591 48.495140 23.369141 2.080078 0.566406 -19.667969 2.412109 -0.019120 -7.949219 -5.048829 -25.146486 5.810546 9.501953 -25.839844 3.339844 0.087891 -0.019531 -67.978516 -1.191406 38.095703 -73.603516 -1.269531 4.345919 1.650391 -13.691407 -0.256218 -2.988281 1.494141 -0.117442 57.900394 8.320313 -8.826711 42.285156 1.582031 -2.080068 -20.615236 0.712891 -0.458984 -28.466740 18.593683 14.319384 48.418056 -0.550613 -3.237441 -21.944681 8.865797 -1.634022 -45.212368 -17.166870 -8.802858 53.871399 -0.195185 2.954238 -8.694234 -11.352366 3.199366 
-3.562330 45.123142 -60.183170 4.746094 -8.623047 49.892574 23.886719 1.689453 0.615234 -19.843748 2.412109 0.156661 -9.140624 -4.560547 -25.723431 5.810546 9.501953 -26.542969 3.339844 0.087891 -0.019531 -68.222656 -1.582031 38.691135 -74.130859 -1.240234 3.955290 1.445312 -13.867188 -0.078125 -3.339844 0.791016 -0.146484 56.474609 9.843750 -7.342080 38.671875 1.386719 0.888436 -19.003904 -3.779297 0.975919 -29.491856 19.091610 13.569152 49.118034 -0.606515 -3.093711 -21.715048 7.710911 -2.142241 -45.074558 -17.351635 -9.624738 53.871399 -0.195190 2.954236 -8.666058 -12.108974 3.027582 
-3.701843 45.027393 -60.335690 4.042969 -9.150391 51.473057 24.589844 1.132813 0.605662 -20.019531 2.412109 0.332442 -10.468750 -3.750000 -26.669922 5.986328 9.326172 -27.244513 3.339844 0.263672 -0.029342 -68.525391 -2.158203 39.433228 -74.833984 -1.425781 3.457274 0.908203 -13.867188 -0.051169 -3.525390 0.087891 -0.185562 54.882809 11.875000 -4.267578 33.027344 1.396484 1.650153 -16.669922 -6.376953 1.474609 -30.882288 19.427471 12.459193 49.997940 -0.743764 -2.860877 -21.611547 6.490243 -2.495122 -44.783833 -17.919422 -10.696199 54.222298 -0.195239 2.979607 -8.579920 -12.894460 2.881055 
-3.869257 44.883587 -60.474354 3.505859 -9.501953 53.230808 25.107424 0.351563 0.693419 -20.195313 2.763672 0.859846 -11.972656 -3.310547 -27.753906 5.986328 9.326172 -28.299200 3.339844 0.087891 -0.019531 -68.710938 -2.998047 40.419674 -75.371086 -1.376953 3.066654 0.732422 -13.691379 -0.041372 -3.525390 -0.625000 -0.048722 53.505859 14.374999 1.750472 26.757811 1.523438 -0.908203 -15.087892 -9.150390 1.943359 -32.602982 19.917885 11.260264 51.242775 -0.433562 -2.960257 -21.679604 5.122057 -3.121789 -44.972858 -18.618168 -11.983984 54.918659 -0.195333 3.175443 -8.837587 -13.044252 2.588633 
-4.060758 44.699360 -60.564987 2.978516 -10.019532 54.843750 25.791016 -0.546875 1.122954 -20.195314 2.939453 1.562500 -13.623047 -3.232422 -29.003902 6.337891 9.160157 -29.335936 3.164063 -0.087890 -0.009751 -68.798828 -3.935546 41.738274 -75.556641 -1.386719 2.343987 0.732422 -13.164036 -0.031519 -3.349610 -1.669922 -0.107422 52.617188 16.777346 11.496962 22.177734 1.845703 -6.885079 -13.095703 -11.679688 2.109375 -34.487518 20.777323 10.280699 52.456917 -0.275407 -3.112169 -21.816982 3.899883 -3.667572 -44.726391 -18.916121 -13.590049 55.633400 -0.375416 2.768777 -9.057134 -12.668025 2.743321 
-4.256553 44.481621 -60.566532 2.109375 -10.380860 56.384956 26.308596 -1.611328 1.493866 -20.019531 3.291016 2.266186 -15.273437 -3.857422 -30.371752 6.865235 9.160157 -30.730869 2.802734 -0.625000 -0.156143 -68.427734 -4.912109 43.202286 -75.556641 -1.435547 2.177979 0.732422 -12.812473 -0.031460 -2.636719 -2.558594 0.058594 52.460934 19.277344 22.412107 20.390625 2.314453 -13.486330 -8.710938 -15.800780 1.706327 -36.336288 21.385572 9.409042 53.872181 -0.236559 -3.153745 -22.063948 2.674413 -4.037885 -44.876740 -19.243649 -14.834799 56.690483 -0.361184 2.996356 -9.709017 -13.000898 2.490313 
-4.439826 44.235031 -60.469109 1.406250 -10.908203 57.966900 26.826172 -2.402344 2.148028 -20.195314 3.115234 3.144531 -16.923828 -3.945313 -31.602230 7.402343 8.984374 -31.767574 2.451172 -0.625000 -0.156143 -68.076164 -5.878906 44.666969 -74.863281 -1.503906 1.836194 0.732422 -12.636720 -0.031433 -1.757813 -3.613281 0.068359 53.183594 22.421873 35.097656 20.048828 2.500000 -18.682066 -3.378906 -20.576170 0.396960 -37.879677 22.401493 9.069009 55.254234 -0.100511 -3.512410 -22.064320 1.547925 -4.713385 -44.905029 -19.447645 -15.812773 57.924156 -0.224577 2.765444 -10.457561 -13.050570 2.395558 
-4.591501 43.966858 -60.256981 0.527344 -11.074203 59.021599 27.343750 -3.066406 2.470181 -20.019531 3.115234 3.848187 -18.603516 -4.375000 -32.636719 8.105469 9.160156 -32.792969 2.275391 -0.976563 -0.146318 -67.607422 -6.904296 46.044922 -73.828125 -1.542969 0.937763 0.556641 -12.285157 -0.019531 -1.230469 -4.492188 0.088655 53.808598 27.666016 50.932266 20.976563 2.578125 -20.850048 2.900391 -24.492188 -2.181783 -39.271599 23.794191 8.110539 56.506008 -0.092464 -3.230731 -22.502186 -0.188064 -5.403466 -45.081306 -19.272196 -16.865044 59.497559 -0.382189 2.926444 -11.307217 -12.949268 2.351620 
-4.694048 43.670780 -59.939320 -0.537109 -11.084002 59.929726 27.861326 -3.574219 2.851562 -20.019531 2.763672 4.199690 -19.960938 -4.580079 -33.144531 8.984374 9.160156 -33.115234 2.099609 -1.152344 -0.146484 -67.314453 -7.744140 46.961578 -72.236328 -1.406250 1.269771 0.556641 -12.460938 -0.019531 -0.869141 -5.195326 0.108306 55.537109 34.814449 61.982422 21.279297 2.333984 -13.398835 10.410156 -23.515625 -5.156250 -40.335663 25.385675 7.435360 58.271656 -0.102649 -3.332929 -22.891821 -1.451356 -5.799847 -45.065178 -19.079391 -17.976984 61.427784 -0.546733 2.939795 -12.192318 -12.944461 1.861521 
-4.746515 43.360641 -59.532955 -1.240234 -10.908203 60.427837 28.398438 -4.072266 2.675088 -20.195314 2.412109 4.365234 -20.292971 -4.072266 -33.359375 9.335938 9.160155 -33.105469 1.923828 -1.152344 -0.146288 -67.041016 -8.037108 47.724613 -70.839836 -1.494141 0.937755 1.083984 -11.933593 -0.048828 -0.869141 -5.546875 0.097656 58.310547 41.865234 64.508476 22.656250 1.289063 2.460938 14.482422 -19.277344 -5.559863 -40.647026 26.751877 6.754005 59.300270 0.073200 -3.433779 -23.114515 -2.116740 -6.397594 -46.029137 -19.496841 -18.442112 64.040779 -0.888666 3.353588 -11.235604 -11.880419 2.307259 
-4.732921 43.019253 -59.050743 -1.943359 -10.732422 60.466927 28.593750 -4.345703 2.391838 -20.371094 2.412109 4.365234 -20.146484 -3.691406 -33.027344 9.697266 9.160156 -32.918365 1.748047 -1.152344 -0.146288 -67.089844 -8.115234 48.105469 -69.287109 -1.513672 -0.185547 1.259766 -11.054688 -0.060466 -1.025391 -6.250000 0.244141 59.541012 49.150394 62.705078 28.486328 0.273438 18.417921 13.837891 -12.705078 -3.566602 -40.921471 28.422449 6.562291 60.724636 0.240167 -3.399818 -23.749744 -2.643465 -6.570216 -47.263149 -19.851608 -18.315451 67.199013 -1.239976 3.261010 -8.694084 -9.625020 3.217082 
-4.657560 42.647812 -58.492214 -2.470703 -10.371167 60.115253 28.603516 -4.453125 2.167211 -20.898438 2.412109 4.004317 -18.779297 -3.134766 -32.539063 9.697266 9.335938 -32.215210 1.396484 -1.152344 -0.156054 -67.187500 -7.568360 48.172546 -67.890625 -1.650391 -0.507813 0.732422 -10.351541 -0.031050 -1.376953 -6.777372 0.196463 57.705078 56.298828 58.113594 38.906250 -0.458984 30.507814 9.296875 -5.371094 -1.163024 -40.842724 29.925566 6.247839 62.098835 0.424616 -3.899776 -24.551868 -3.117683 -6.714910 -48.850910 -20.912533 -17.709429 70.529434 -1.249676 3.566876 -4.880409 -5.251216 4.247622 
-4.517692 42.236435 -57.871323 -2.822266 -10.029297 59.754154 28.613281 -4.501953 1.777343 -21.777342 2.246094 3.642961 -17.080078 -2.734375 -31.855467 9.873047 9.511720 -31.502295 1.044922 -0.976563 -0.165849 -67.529297 -7.021485 47.938255 -66.992188 -1.552734 0.205078 0.195312 -10.175780 0.000000 -2.246094 -7.314454 0.244141 50.693363 63.662109 47.811489 51.738285 -0.781250 35.732552 4.013672 0.527344 -0.078125 -40.706867 31.722960 6.229350 63.678890 0.581449 -3.869216 -25.231432 -3.281998 -6.861145 -50.764103 -22.298555 -16.510624 73.513916 -1.425750 3.560401 -2.163986 0.281714 4.835824 
